# xmcd
#
# Track frame offsets: 
#        150
#        12581
#        27476
#        33406
#        37582
#        55257
#        68091
#        96213
#        110928
#        118700
#        134581
#        153046
#        173964
#        184531
#        204896
#        219609
#        234800
#        253414
#        259079
#        282452
#        295398
#        312964
#        327087
#        347137
#
# Disc length: 4763 seconds
#
# Revision: 0
# Processed by: cddbd v1.5.2PL0 Copyright (c) Steve Scherf et al.
# Submitted via: ExactAudioCopy v0.99pb5
#
DISCID=66129918
DTITLE=Elvis Presley  - FTD 74-2 - Blue Hawaii - CD 2
DYEAR=1961
DGENRE=Blues
TTITLE0=Hawaiian Sunset  take 2
TTITLE1=Hawaiian Sunset  takes 6, 3
TTITLE2=Aloha Oe (section 2) take 6
TTITLE3=Aloha Oe (section 2)  takes 7\\5
TTITLE4=Ku-U-I-Po  takes 2, 4, 5
TTITLE5=Ku-U-I-Po  takes 6, 7
TTITLE6=No More takes 1, 2, 4, 8
TTITLE7=No More  takes 11, 15 (insert ending)
TTITLE8=Slicin Sand take 4
TTITLE9=Slicin Sand takes 5, 6, 7
TTITLE10=Slicin Sand takes 8, 13, 15, 16, 14
TTITLE11=Blue Hawaii takes 4, 5, 6
TTITLE12=Ito Eats takes 4, 6, 5
TTITLE13=Island of Love  takes 1, 2, 4, 6
TTITLE14=Island of Love  takes 7, 9
TTITLE15=Steppin out of Line
TTITLE16=Steppin out of Line
TTITLE17=Steppin out of Line 
TTITLE18=Almost Always True  takes 2, 4, 5
TTITLE19=Almost Always True  takes 7, 6
TTITLE20=Moonlight Swim   takes 1, 4
TTITLE21=Cant Help Falling in Love
TTITLE22=Cant Help Falling in Love 
TTITLE23=Cant Help Falling in Love 
EXTD=
EXTT0=
EXTT1=
EXTT2=
EXTT3=
EXTT4=
EXTT5=
EXTT6=
EXTT7=
EXTT8=
EXTT9=
EXTT10=
EXTT11=
EXTT12=
EXTT13=
EXTT14=
EXTT15=
EXTT16=
EXTT17=
EXTT18=
EXTT19=
EXTT20=
EXTT21=
EXTT22=
EXTT23=
PLAYORDER=
